<svg width="1080" height="1080" viewBox="0 0 1080 1080" fill="none" xmlns="http://www.w3.org/2000/svg">
<rect width="1080" height="1080" fill="black"/>
<path d="M169.3 284.2L298.8 284.9C366.467 284.9 425.967 309.4 477.3 358.4C528.633 406.933 554.3 466.9 554.3 538.3C554.3 609.233 529.1 670.133 478.7 721C428.767 771.867 368.1 797.3 296.7 797.3H168.6C140.133 797.3 122.4 791.467 115.4 779.8C109.8 770 107 755.067 107 735V345.8C107 334.6 107.233 326.433 107.7 321.3C108.633 316.167 110.967 310.1 114.7 303.1C121.233 290.5 139.433 284.2 169.3 284.2ZM298.8 673.4C332.4 673.4 362.733 661.033 389.8 636.3C416.867 611.1 430.4 579.6 430.4 541.8C430.4 504 417.1 472.5 390.5 447.3C364.367 421.633 333.567 408.8 298.1 408.8H230.9V673.4H298.8ZM922.38 678.3C940.58 678.3 953.646 680.633 961.58 685.3C969.98 689.5 975.58 695.8 978.38 704.2C981.646 712.6 983.28 723.333 983.28 736.4C983.28 749.467 982.113 759.967 979.78 767.9C977.446 775.833 974.646 781.9 971.38 786.1C968.113 790.3 963.213 793.333 956.68 795.2C949.213 798 937.313 799.4 920.98 799.4H629.78C619.046 799.4 608.78 796.6 598.98 791C578.446 779.333 568.18 760.9 568.18 735.7C568.18 723.567 570.98 713.767 576.58 706.3L793.58 406H632.58C621.38 406 612.98 405.767 607.38 405.3C602.246 404.367 595.946 402.267 588.48 399C574.946 392.467 568.18 374.967 568.18 346.5C568.18 316.633 574.48 298.433 587.08 291.9C594.08 288.167 600.146 286.067 605.28 285.6C610.88 284.667 619.28 284.2 630.48 284.2H911.88C922.613 284.2 932.88 287 942.68 292.6C952.48 298.2 959.946 305.667 965.08 315C970.68 324.333 973.48 335.3 973.48 347.9C973.48 360.5 970.68 370.533 965.08 378L748.08 678.3H922.38Z" fill="white"/>
</svg>
